M48
;GenerationSoftware,Autodesk,EAGLE,9.2.2*%
;CreationDate,2019-04-24T18:29:00Z*%
FMAT,2
ICI,OFF
INCH,TZ,00.0000
T4C0.0200
T3C0.0354
T2C0.0394
T1C0.0400
%
G90
M72
T1
X10000Y5450
X2220Y10610
X7000Y5550
X8000Y5450
X9000Y5550
X4780Y10610
X20550Y9500
X4780Y12390
X2220Y12390
X20450Y8500
X20550Y7500
X20450Y6500
X20550Y14000
X20550Y12000
X20450Y11000
X20450Y13000
T2
X3016Y8650
X4000Y8650
X4984Y8650
X4000Y7350
X4984Y7350
X3016Y7350
T3
X15000Y24500
X15000Y23500
X15000Y22500
X15000Y21500
X8500Y21500
X5500Y20500
X5500Y22500
X8500Y22500
X8500Y23500
X5500Y24500
X8500Y24500
X8500Y20500
X18000Y24500
X18000Y23500
X5500Y23500
X18000Y22500
X18000Y21500
X18000Y20500
X15000Y20500
X5500Y21500
T4
X14500Y21000
X7000Y21500
X13500Y19500
X7000Y25000
X9500Y24500
X11000Y24500
X14000Y25000
X10500Y6500
X11000Y13000
X15000Y5000
X15000Y9500
X11973Y5977
X19000Y6000
X19000Y8500
X11500Y5500
X19500Y5500
X7539Y13300
X7000Y15000
X10000Y7000
X10000Y9500
X11000Y5000
X9000Y10500
X7000Y10500
X10000Y12000
X16500Y12000
X16500Y14000
X10790Y12500
X8500Y12500
X7500Y12500
X15500Y13000
X15500Y4500
X7500Y11000
X7000Y7000
X11000Y13500
X6000Y13263
X6000Y9500
X14500Y10000
X14500Y16000
X20500Y18000
X13500Y9500
X16290Y6500
X13000Y6500
X13000Y7000
X14000Y7500
X13500Y15500
X16500Y20000
X6500Y14000
X10000Y16500
X13000Y16000
X9000Y16000
X12500Y16000
X4500Y22000
X10500Y25000
X10500Y21500
X12500Y24000
X5500Y19000
X3000Y15000
X9500Y21000
M30