G04 EAGLE Gerber RS-274X export*
G75*
%MOIN*%
%FSLAX36Y36*%
%LPD*%
%INBottom Copper Layer*%
%IPPOS*%
%AMOC8*
5,1,8,0,0,1.08239X$1,22.5*%
G01*
%ADD10R,0.130000X0.170000*%
%ADD11R,0.074000X0.074000*%
%ADD12C,0.074000*%
%ADD13C,0.059433*%
%ADD14C,0.064000*%
%ADD15C,0.076000*%
%ADD16C,0.006000*%
%ADD17C,0.040000*%


D10*
X1725000Y1550000D03*
X575000Y1550000D03*
D11*
X700000Y555000D03*
D12*
X800000Y545000D03*
X900000Y555000D03*
X1000000Y545000D03*
D13*
X1500000Y2450000D03*
X1500000Y2350000D03*
X1500000Y2250000D03*
X1500000Y2150000D03*
X1500000Y2050000D03*
X1800000Y2050000D03*
X1800000Y2150000D03*
X1800000Y2250000D03*
X1800000Y2350000D03*
X1800000Y2450000D03*
X550000Y2450000D03*
X550000Y2350000D03*
X550000Y2250000D03*
X550000Y2150000D03*
X550000Y2050000D03*
X850000Y2050000D03*
X850000Y2150000D03*
X850000Y2250000D03*
X850000Y2350000D03*
X850000Y2450000D03*
D14*
X254000Y1239000D02*
X190000Y1239000D01*
X190000Y1061000D02*
X254000Y1061000D01*
X446000Y1239000D02*
X510000Y1239000D01*
X510000Y1061000D02*
X446000Y1061000D01*
D15*
X301575Y864961D03*
X400000Y864961D03*
X498425Y864961D03*
X301575Y735039D03*
X400000Y735039D03*
X498425Y735039D03*
D11*
X2045000Y1100000D03*
D12*
X2055000Y1200000D03*
X2045000Y1300000D03*
X2055000Y1400000D03*
D11*
X2045000Y650000D03*
D12*
X2055000Y750000D03*
X2045000Y850000D03*
X2055000Y950000D03*
D16*
X1150000Y1400000D02*
X753914Y1330039D01*
D17*
X753914Y1330039D03*
D16*
X1150000Y1400000D02*
X2045000Y1300000D01*
X700000Y1500000D02*
X575000Y1550000D01*
D17*
X700000Y1500000D03*
X1000000Y700000D03*
D16*
X1000000Y950000D01*
D17*
X1000000Y950000D03*
X900000Y1050000D03*
D16*
X700000Y1050000D01*
X489000Y1050000D01*
X488997Y1050266D01*
X488987Y1050531D01*
X488971Y1050797D01*
X488949Y1051062D01*
X488920Y1051326D01*
X488885Y1051589D01*
X488843Y1051852D01*
X488795Y1052113D01*
X488741Y1052374D01*
X488680Y1052632D01*
X488614Y1052890D01*
X488541Y1053145D01*
X488462Y1053399D01*
X488376Y1053651D01*
X488285Y1053901D01*
X488188Y1054148D01*
X488085Y1054393D01*
X487976Y1054635D01*
X487861Y1054875D01*
X487740Y1055112D01*
X487614Y1055346D01*
X487482Y1055577D01*
X487344Y1055804D01*
X487201Y1056028D01*
X487053Y1056249D01*
X486899Y1056466D01*
X486740Y1056679D01*
X486576Y1056888D01*
X486407Y1057093D01*
X486234Y1057294D01*
X486055Y1057491D01*
X485872Y1057684D01*
X485684Y1057872D01*
X485491Y1058055D01*
X485294Y1058234D01*
X485093Y1058407D01*
X484888Y1058576D01*
X484679Y1058740D01*
X484466Y1058899D01*
X484249Y1059053D01*
X484028Y1059201D01*
X483804Y1059344D01*
X483577Y1059482D01*
X483346Y1059614D01*
X483112Y1059740D01*
X482875Y1059861D01*
X482635Y1059976D01*
X482393Y1060085D01*
X482148Y1060188D01*
X481901Y1060285D01*
X481651Y1060376D01*
X481399Y1060462D01*
X481145Y1060541D01*
X480890Y1060614D01*
X480632Y1060680D01*
X480374Y1060741D01*
X480113Y1060795D01*
X479852Y1060843D01*
X479589Y1060885D01*
X479326Y1060920D01*
X479062Y1060949D01*
X478797Y1060971D01*
X478531Y1060987D01*
X478266Y1060997D01*
X478000Y1061000D01*
D17*
X700000Y1050000D03*
X1000000Y1200000D03*
D16*
X1650000Y1200000D01*
D17*
X1650000Y1200000D03*
X1650000Y1400000D03*
D16*
X2055000Y1400000D01*
X478000Y1061000D02*
X222000Y1061000D01*
D17*
X1079000Y1250000D03*
D16*
X850000Y1250000D01*
D17*
X850000Y1250000D03*
X750000Y1250000D03*
D16*
X489000Y1250000D01*
X488734Y1249997D01*
X488469Y1249987D01*
X488203Y1249971D01*
X487938Y1249949D01*
X487674Y1249920D01*
X487411Y1249885D01*
X487148Y1249843D01*
X486887Y1249795D01*
X486626Y1249741D01*
X486368Y1249680D01*
X486110Y1249614D01*
X485855Y1249541D01*
X485601Y1249462D01*
X485349Y1249376D01*
X485099Y1249285D01*
X484852Y1249188D01*
X484607Y1249085D01*
X484365Y1248976D01*
X484125Y1248861D01*
X483888Y1248740D01*
X483654Y1248614D01*
X483423Y1248482D01*
X483196Y1248344D01*
X482972Y1248201D01*
X482751Y1248053D01*
X482534Y1247899D01*
X482321Y1247740D01*
X482112Y1247576D01*
X481907Y1247407D01*
X481706Y1247234D01*
X481509Y1247055D01*
X481316Y1246872D01*
X481128Y1246684D01*
X480945Y1246491D01*
X480766Y1246294D01*
X480593Y1246093D01*
X480424Y1245888D01*
X480260Y1245679D01*
X480101Y1245466D01*
X479947Y1245249D01*
X479799Y1245028D01*
X479656Y1244804D01*
X479518Y1244577D01*
X479386Y1244346D01*
X479260Y1244112D01*
X479139Y1243875D01*
X479024Y1243635D01*
X478915Y1243393D01*
X478812Y1243148D01*
X478715Y1242901D01*
X478624Y1242651D01*
X478538Y1242399D01*
X478459Y1242145D01*
X478386Y1241890D01*
X478320Y1241632D01*
X478259Y1241374D01*
X478205Y1241113D01*
X478157Y1240852D01*
X478115Y1240589D01*
X478080Y1240326D01*
X478051Y1240062D01*
X478029Y1239797D01*
X478013Y1239531D01*
X478003Y1239266D01*
X478000Y1239000D01*
X222000Y1239000D01*
X900000Y450000D02*
X1550000Y450000D01*
X900000Y450000D02*
X900000Y555000D01*
D17*
X1100000Y1300000D03*
D16*
X1550000Y1300000D01*
D17*
X1550000Y1300000D03*
X1550000Y450000D03*
D16*
X1100000Y1350000D02*
X1000000Y1350000D01*
X993959Y1349927D01*
X987922Y1349708D01*
X981891Y1349343D01*
X975872Y1348833D01*
X969866Y1348177D01*
X963878Y1347377D01*
X957911Y1346432D01*
X951968Y1345343D01*
X946054Y1344110D01*
X940171Y1342735D01*
X934323Y1341219D01*
X928514Y1339561D01*
X922746Y1337764D01*
X917023Y1335828D01*
X911349Y1333754D01*
X905726Y1331544D01*
X900159Y1329198D01*
X894650Y1326719D01*
X889202Y1324107D01*
X883819Y1321364D01*
X878504Y1318492D01*
X873260Y1315492D01*
X868090Y1312367D01*
X862997Y1309118D01*
X857984Y1305746D01*
X853054Y1302254D01*
X848209Y1298644D01*
X843454Y1294919D01*
X838789Y1291079D01*
X834219Y1287128D01*
X829746Y1283067D01*
X825372Y1278900D01*
X821100Y1274628D01*
X816933Y1270254D01*
X812872Y1265781D01*
X808921Y1261211D01*
X805081Y1256546D01*
X801356Y1251791D01*
X797746Y1246946D01*
X794254Y1242016D01*
X790882Y1237003D01*
X787633Y1231910D01*
X784508Y1226740D01*
X781508Y1221496D01*
X778636Y1216181D01*
X775893Y1210798D01*
X773281Y1205350D01*
X770802Y1199841D01*
X768456Y1194274D01*
X766246Y1188651D01*
X764172Y1182977D01*
X762236Y1177254D01*
X760439Y1171486D01*
X758781Y1165677D01*
X757265Y1159829D01*
X755890Y1153946D01*
X754657Y1148032D01*
X753568Y1142089D01*
X752623Y1136122D01*
X751823Y1130134D01*
X751167Y1124128D01*
X750657Y1118109D01*
X750292Y1112078D01*
X750073Y1106041D01*
X750000Y1100000D01*
D17*
X750000Y1100000D03*
X700000Y700000D03*
D16*
X702671Y699967D01*
X705340Y699870D01*
X708007Y699708D01*
X710668Y699480D01*
X713323Y699188D01*
X715970Y698832D01*
X718608Y698411D01*
X721235Y697926D01*
X723849Y697378D01*
X726449Y696765D01*
X729034Y696090D01*
X731601Y695352D01*
X734149Y694552D01*
X736678Y693690D01*
X739184Y692767D01*
X741668Y691783D01*
X744126Y690739D01*
X746559Y689636D01*
X748964Y688473D01*
X751340Y687253D01*
X753685Y685975D01*
X755999Y684640D01*
X758279Y683249D01*
X760526Y681803D01*
X762736Y680303D01*
X764909Y678750D01*
X767043Y677144D01*
X769138Y675487D01*
X771192Y673779D01*
X773204Y672022D01*
X775173Y670216D01*
X777096Y668363D01*
X778975Y666464D01*
X780806Y664520D01*
X782590Y662531D01*
X784324Y660500D01*
X786009Y658427D01*
X787643Y656314D01*
X789225Y654162D01*
X790754Y651972D01*
X792229Y649745D01*
X793650Y647483D01*
X795015Y645187D01*
X796324Y642858D01*
X797576Y640499D01*
X798770Y638109D01*
X799906Y635692D01*
X800982Y633247D01*
X801999Y630777D01*
X802955Y628283D01*
X803850Y625766D01*
X804684Y623228D01*
X805456Y620671D01*
X806165Y618096D01*
X806811Y615504D01*
X807394Y612897D01*
X807914Y610277D01*
X808369Y607645D01*
X808761Y605003D01*
X809088Y602352D01*
X809350Y599694D01*
X809548Y597030D01*
X809681Y594362D01*
X809748Y591692D01*
X809751Y589020D01*
X809689Y586350D01*
X809562Y583682D01*
X809370Y581018D01*
X809113Y578359D01*
X808791Y575707D01*
X808405Y573064D01*
X807955Y570431D01*
X807441Y567810D01*
X806864Y565202D01*
X806223Y562609D01*
X805519Y560032D01*
X804752Y557473D01*
X803924Y554934D01*
X803034Y552415D01*
X802083Y549919D01*
X801071Y547447D01*
X800000Y545000D01*
D17*
X1100000Y1350000D03*
D16*
X603887Y1330174D02*
X1725000Y1550000D01*
X600000Y950000D02*
X485039Y950000D01*
X400000Y864961D01*
X600000Y1326287D02*
X600002Y1326409D01*
X600008Y1326531D01*
X600017Y1326653D01*
X600031Y1326774D01*
X600048Y1326895D01*
X600069Y1327015D01*
X600094Y1327135D01*
X600122Y1327254D01*
X600154Y1327371D01*
X600190Y1327488D01*
X600230Y1327604D01*
X600273Y1327718D01*
X600320Y1327831D01*
X600370Y1327942D01*
X600424Y1328052D01*
X600481Y1328160D01*
X600541Y1328266D01*
X600605Y1328370D01*
X600672Y1328472D01*
X600742Y1328572D01*
X600816Y1328669D01*
X600892Y1328765D01*
X600971Y1328858D01*
X601053Y1328948D01*
X601138Y1329036D01*
X601226Y1329121D01*
X601316Y1329203D01*
X601409Y1329282D01*
X601505Y1329358D01*
X601602Y1329432D01*
X601702Y1329502D01*
X601804Y1329569D01*
X601908Y1329633D01*
X602014Y1329693D01*
X602122Y1329750D01*
X602232Y1329804D01*
X602343Y1329854D01*
X602456Y1329901D01*
X602570Y1329944D01*
X602686Y1329984D01*
X602803Y1330020D01*
X602920Y1330052D01*
X603039Y1330080D01*
X603159Y1330105D01*
X603279Y1330126D01*
X603400Y1330143D01*
X603521Y1330157D01*
X603643Y1330166D01*
X603765Y1330172D01*
X603887Y1330174D01*
D17*
X600000Y1326287D03*
X600000Y950000D03*
D16*
X1350000Y950000D02*
X1350015Y951208D01*
X1350058Y952416D01*
X1350131Y953622D01*
X1350233Y954826D01*
X1350365Y956027D01*
X1350525Y957224D01*
X1350714Y958418D01*
X1350931Y959606D01*
X1351178Y960789D01*
X1351453Y961966D01*
X1351756Y963135D01*
X1352088Y964297D01*
X1352447Y965451D01*
X1352834Y966595D01*
X1353249Y967730D01*
X1353691Y968855D01*
X1354160Y969968D01*
X1354656Y971070D01*
X1355179Y972160D01*
X1355727Y973236D01*
X1356302Y974299D01*
X1356902Y975348D01*
X1357527Y976382D01*
X1358176Y977401D01*
X1358851Y978403D01*
X1359549Y979389D01*
X1360271Y980358D01*
X1361016Y981309D01*
X1361784Y982242D01*
X1362574Y983156D01*
X1363387Y984051D01*
X1364220Y984926D01*
X1365074Y985780D01*
X1365949Y986613D01*
X1366844Y987426D01*
X1367758Y988216D01*
X1368691Y988984D01*
X1369642Y989729D01*
X1370611Y990451D01*
X1371597Y991149D01*
X1372599Y991824D01*
X1373618Y992473D01*
X1374652Y993098D01*
X1375701Y993698D01*
X1376764Y994273D01*
X1377840Y994821D01*
X1378930Y995344D01*
X1380032Y995840D01*
X1381145Y996309D01*
X1382270Y996751D01*
X1383405Y997166D01*
X1384549Y997553D01*
X1385703Y997912D01*
X1386865Y998244D01*
X1388034Y998547D01*
X1389211Y998822D01*
X1390394Y999069D01*
X1391582Y999286D01*
X1392776Y999475D01*
X1393973Y999635D01*
X1395174Y999767D01*
X1396378Y999869D01*
X1397584Y999942D01*
X1398792Y999985D01*
X1400000Y1000000D01*
X1450000Y1000000D01*
D17*
X1450000Y1000000D03*
X1450000Y1600000D03*
D16*
X1450000Y1800000D01*
X2050000Y1800000D01*
D17*
X2050000Y1800000D03*
X1350000Y950000D03*
X1629000Y650000D03*
D16*
X1300000Y650000D01*
D17*
X1300000Y650000D03*
D16*
X1300000Y700000D02*
X1350000Y700000D01*
X1351208Y700015D01*
X1352416Y700058D01*
X1353622Y700131D01*
X1354826Y700233D01*
X1356027Y700365D01*
X1357224Y700525D01*
X1358418Y700714D01*
X1359606Y700931D01*
X1360789Y701178D01*
X1361966Y701453D01*
X1363135Y701756D01*
X1364297Y702088D01*
X1365451Y702447D01*
X1366595Y702834D01*
X1367730Y703249D01*
X1368855Y703691D01*
X1369968Y704160D01*
X1371070Y704656D01*
X1372160Y705179D01*
X1373236Y705727D01*
X1374299Y706302D01*
X1375348Y706902D01*
X1376382Y707527D01*
X1377401Y708176D01*
X1378403Y708851D01*
X1379389Y709549D01*
X1380358Y710271D01*
X1381309Y711016D01*
X1382242Y711784D01*
X1383156Y712574D01*
X1384051Y713387D01*
X1384926Y714220D01*
X1385780Y715074D01*
X1386613Y715949D01*
X1387426Y716844D01*
X1388216Y717758D01*
X1388984Y718691D01*
X1389729Y719642D01*
X1390451Y720611D01*
X1391149Y721597D01*
X1391824Y722599D01*
X1392473Y723618D01*
X1393098Y724652D01*
X1393698Y725701D01*
X1394273Y726764D01*
X1394821Y727840D01*
X1395344Y728930D01*
X1395840Y730032D01*
X1396309Y731145D01*
X1396751Y732270D01*
X1397166Y733405D01*
X1397553Y734549D01*
X1397912Y735703D01*
X1398244Y736865D01*
X1398547Y738034D01*
X1398822Y739211D01*
X1399069Y740394D01*
X1399286Y741582D01*
X1399475Y742776D01*
X1399635Y743973D01*
X1399767Y745174D01*
X1399869Y746378D01*
X1399942Y747584D01*
X1399985Y748792D01*
X1400000Y750000D01*
D17*
X1300000Y700000D03*
X1400000Y750000D03*
X1350000Y1550000D03*
X650000Y1400000D03*
D16*
X1350000Y1550000D01*
D17*
X1000000Y1650000D03*
D16*
X1250000Y1650000D01*
X1251208Y1649985D01*
X1252416Y1649942D01*
X1253622Y1649869D01*
X1254826Y1649767D01*
X1256027Y1649635D01*
X1257224Y1649475D01*
X1258418Y1649286D01*
X1259606Y1649069D01*
X1260789Y1648822D01*
X1261966Y1648547D01*
X1263135Y1648244D01*
X1264297Y1647912D01*
X1265451Y1647553D01*
X1266595Y1647166D01*
X1267730Y1646751D01*
X1268855Y1646309D01*
X1269968Y1645840D01*
X1271070Y1645344D01*
X1272160Y1644821D01*
X1273236Y1644273D01*
X1274299Y1643698D01*
X1275348Y1643098D01*
X1276382Y1642473D01*
X1277401Y1641824D01*
X1278403Y1641149D01*
X1279389Y1640451D01*
X1280358Y1639729D01*
X1281309Y1638984D01*
X1282242Y1638216D01*
X1283156Y1637426D01*
X1284051Y1636613D01*
X1284926Y1635780D01*
X1285780Y1634926D01*
X1286613Y1634051D01*
X1287426Y1633156D01*
X1288216Y1632242D01*
X1288984Y1631309D01*
X1289729Y1630358D01*
X1290451Y1629389D01*
X1291149Y1628403D01*
X1291824Y1627401D01*
X1292473Y1626382D01*
X1293098Y1625348D01*
X1293698Y1624299D01*
X1294273Y1623236D01*
X1294821Y1622160D01*
X1295344Y1621070D01*
X1295840Y1619968D01*
X1296309Y1618855D01*
X1296751Y1617730D01*
X1297166Y1616595D01*
X1297553Y1615451D01*
X1297912Y1614297D01*
X1298244Y1613135D01*
X1298547Y1611966D01*
X1298822Y1610789D01*
X1299069Y1609606D01*
X1299286Y1608418D01*
X1299475Y1607224D01*
X1299635Y1606027D01*
X1299767Y1604826D01*
X1299869Y1603622D01*
X1299942Y1602416D01*
X1299985Y1601208D01*
X1300000Y1600000D01*
D17*
X1300000Y1600000D03*
X900000Y1600000D03*
X1250000Y1600000D03*
D16*
X900000Y1600000D01*
D17*
X450000Y2200000D03*
D16*
X450000Y2000000D01*
X900000Y1800000D01*
X900000Y1600000D01*
D17*
X1050000Y2500000D03*
D16*
X1050000Y2150000D01*
D17*
X1050000Y2150000D03*
D16*
X1700000Y2450000D02*
X1800000Y2450000D01*
X1700000Y2450000D02*
X1698792Y2449985D01*
X1697584Y2449942D01*
X1696378Y2449869D01*
X1695174Y2449767D01*
X1693973Y2449635D01*
X1692776Y2449475D01*
X1691582Y2449286D01*
X1690394Y2449069D01*
X1689211Y2448822D01*
X1688034Y2448547D01*
X1686865Y2448244D01*
X1685703Y2447912D01*
X1684549Y2447553D01*
X1683405Y2447166D01*
X1682270Y2446751D01*
X1681145Y2446309D01*
X1680032Y2445840D01*
X1678930Y2445344D01*
X1677840Y2444821D01*
X1676764Y2444273D01*
X1675701Y2443698D01*
X1674652Y2443098D01*
X1673618Y2442473D01*
X1672599Y2441824D01*
X1671597Y2441149D01*
X1670611Y2440451D01*
X1669642Y2439729D01*
X1668691Y2438984D01*
X1667758Y2438216D01*
X1666844Y2437426D01*
X1665949Y2436613D01*
X1665074Y2435780D01*
X1664220Y2434926D01*
X1663387Y2434051D01*
X1662574Y2433156D01*
X1661784Y2432242D01*
X1661016Y2431309D01*
X1660271Y2430358D01*
X1659549Y2429389D01*
X1658851Y2428403D01*
X1658176Y2427401D01*
X1657527Y2426382D01*
X1656902Y2425348D01*
X1656302Y2424299D01*
X1655727Y2423236D01*
X1655179Y2422160D01*
X1654656Y2421070D01*
X1654160Y2419968D01*
X1653691Y2418855D01*
X1653249Y2417730D01*
X1652834Y2416595D01*
X1652447Y2415451D01*
X1652088Y2414297D01*
X1651756Y2413135D01*
X1651453Y2411966D01*
X1651178Y2410789D01*
X1650931Y2409606D01*
X1650714Y2408418D01*
X1650525Y2407224D01*
X1650365Y2406027D01*
X1650233Y2404826D01*
X1650131Y2403622D01*
X1650058Y2402416D01*
X1650015Y2401208D01*
X1650000Y2400000D01*
D17*
X1250000Y2400000D03*
D16*
X1650000Y2400000D01*
X850000Y2150000D02*
X800000Y2150000D01*
X798792Y2149985D01*
X797584Y2149942D01*
X796378Y2149869D01*
X795174Y2149767D01*
X793973Y2149635D01*
X792776Y2149475D01*
X791582Y2149286D01*
X790394Y2149069D01*
X789211Y2148822D01*
X788034Y2148547D01*
X786865Y2148244D01*
X785703Y2147912D01*
X784549Y2147553D01*
X783405Y2147166D01*
X782270Y2146751D01*
X781145Y2146309D01*
X780032Y2145840D01*
X778930Y2145344D01*
X777840Y2144821D01*
X776764Y2144273D01*
X775701Y2143698D01*
X774652Y2143098D01*
X773618Y2142473D01*
X772599Y2141824D01*
X771597Y2141149D01*
X770611Y2140451D01*
X769642Y2139729D01*
X768691Y2138984D01*
X767758Y2138216D01*
X766844Y2137426D01*
X765949Y2136613D01*
X765074Y2135780D01*
X764220Y2134926D01*
X763387Y2134051D01*
X762574Y2133156D01*
X761784Y2132242D01*
X761016Y2131309D01*
X760271Y2130358D01*
X759549Y2129389D01*
X758851Y2128403D01*
X758176Y2127401D01*
X757527Y2126382D01*
X756902Y2125348D01*
X756302Y2124299D01*
X755727Y2123236D01*
X755179Y2122160D01*
X754656Y2121070D01*
X754160Y2119968D01*
X753691Y2118855D01*
X753249Y2117730D01*
X752834Y2116595D01*
X752447Y2115451D01*
X752088Y2114297D01*
X751756Y2113135D01*
X751453Y2111966D01*
X751178Y2110789D01*
X750931Y2109606D01*
X750714Y2108418D01*
X750525Y2107224D01*
X750365Y2106027D01*
X750233Y2104826D01*
X750131Y2103622D01*
X750058Y2102416D01*
X750015Y2101208D01*
X750000Y2100000D01*
X750000Y2050000D01*
X750015Y2048792D01*
X750058Y2047584D01*
X750131Y2046378D01*
X750233Y2045174D01*
X750365Y2043973D01*
X750525Y2042776D01*
X750714Y2041582D01*
X750931Y2040394D01*
X751178Y2039211D01*
X751453Y2038034D01*
X751756Y2036865D01*
X752088Y2035703D01*
X752447Y2034549D01*
X752834Y2033405D01*
X753249Y2032270D01*
X753691Y2031145D01*
X754160Y2030032D01*
X754656Y2028930D01*
X755179Y2027840D01*
X755727Y2026764D01*
X756302Y2025701D01*
X756902Y2024652D01*
X757527Y2023618D01*
X758176Y2022599D01*
X758851Y2021597D01*
X759549Y2020611D01*
X760271Y2019642D01*
X761016Y2018691D01*
X761784Y2017758D01*
X762574Y2016844D01*
X763387Y2015949D01*
X764220Y2015074D01*
X765074Y2014220D01*
X765949Y2013387D01*
X766844Y2012574D01*
X767758Y2011784D01*
X768691Y2011016D01*
X769642Y2010271D01*
X770611Y2009549D01*
X771597Y2008851D01*
X772599Y2008176D01*
X773618Y2007527D01*
X774652Y2006902D01*
X775701Y2006302D01*
X776764Y2005727D01*
X777840Y2005179D01*
X778930Y2004656D01*
X780032Y2004160D01*
X781145Y2003691D01*
X782270Y2003249D01*
X783405Y2002834D01*
X784549Y2002447D01*
X785703Y2002088D01*
X786865Y2001756D01*
X788034Y2001453D01*
X789211Y2001178D01*
X790394Y2000931D01*
X791582Y2000714D01*
X792776Y2000525D01*
X793973Y2000365D01*
X795174Y2000233D01*
X796378Y2000131D01*
X797584Y2000058D01*
X798792Y2000015D01*
X800000Y2000000D01*
X1650000Y2000000D01*
D17*
X1650000Y2000000D03*
X550000Y1900000D03*
D16*
X450000Y1900000D01*
X446375Y1899956D01*
X442753Y1899825D01*
X439135Y1899606D01*
X435523Y1899300D01*
X431919Y1898906D01*
X428327Y1898426D01*
X424746Y1897859D01*
X421181Y1897206D01*
X417632Y1896466D01*
X414103Y1895641D01*
X410594Y1894731D01*
X407108Y1893737D01*
X403647Y1892658D01*
X400214Y1891497D01*
X396809Y1890252D01*
X393436Y1888926D01*
X390095Y1887519D01*
X386790Y1886031D01*
X383521Y1884464D01*
X380292Y1882818D01*
X377102Y1881095D01*
X373956Y1879295D01*
X370854Y1877420D01*
X367798Y1875471D01*
X364790Y1873448D01*
X361832Y1871353D01*
X358926Y1869187D01*
X356072Y1866951D01*
X353274Y1864647D01*
X350532Y1862277D01*
X347848Y1859840D01*
X345223Y1857340D01*
X342660Y1854777D01*
X340160Y1852152D01*
X337723Y1849468D01*
X335353Y1846726D01*
X333049Y1843928D01*
X330813Y1841074D01*
X328647Y1838168D01*
X326552Y1835210D01*
X324529Y1832202D01*
X322580Y1829146D01*
X320705Y1826044D01*
X318905Y1822898D01*
X317182Y1819708D01*
X315536Y1816479D01*
X313969Y1813210D01*
X312481Y1809905D01*
X311074Y1806564D01*
X309748Y1803191D01*
X308503Y1799786D01*
X307342Y1796353D01*
X306263Y1792892D01*
X305269Y1789406D01*
X304359Y1785897D01*
X303534Y1782368D01*
X302794Y1778819D01*
X302141Y1775254D01*
X301574Y1771673D01*
X301094Y1768081D01*
X300700Y1764477D01*
X300394Y1760865D01*
X300175Y1757247D01*
X300044Y1753625D01*
X300000Y1750000D01*
X300000Y1500000D01*
D17*
X300000Y1500000D03*
X950000Y2100000D03*
D16*
X1450000Y2100000D01*
D17*
X1450000Y2100000D03*
X700000Y2150000D03*
D16*
X700000Y2000000D01*
X700015Y1998792D01*
X700058Y1997584D01*
X700131Y1996378D01*
X700233Y1995174D01*
X700365Y1993973D01*
X700525Y1992776D01*
X700714Y1991582D01*
X700931Y1990394D01*
X701178Y1989211D01*
X701453Y1988034D01*
X701756Y1986865D01*
X702088Y1985703D01*
X702447Y1984549D01*
X702834Y1983405D01*
X703249Y1982270D01*
X703691Y1981145D01*
X704160Y1980032D01*
X704656Y1978930D01*
X705179Y1977840D01*
X705727Y1976764D01*
X706302Y1975701D01*
X706902Y1974652D01*
X707527Y1973618D01*
X708176Y1972599D01*
X708851Y1971597D01*
X709549Y1970611D01*
X710271Y1969642D01*
X711016Y1968691D01*
X711784Y1967758D01*
X712574Y1966844D01*
X713387Y1965949D01*
X714220Y1965074D01*
X715074Y1964220D01*
X715949Y1963387D01*
X716844Y1962574D01*
X717758Y1961784D01*
X718691Y1961016D01*
X719642Y1960271D01*
X720611Y1959549D01*
X721597Y1958851D01*
X722599Y1958176D01*
X723618Y1957527D01*
X724652Y1956902D01*
X725701Y1956302D01*
X726764Y1955727D01*
X727840Y1955179D01*
X728930Y1954656D01*
X730032Y1954160D01*
X731145Y1953691D01*
X732270Y1953249D01*
X733405Y1952834D01*
X734549Y1952447D01*
X735703Y1952088D01*
X736865Y1951756D01*
X738034Y1951453D01*
X739211Y1951178D01*
X740394Y1950931D01*
X741582Y1950714D01*
X742776Y1950525D01*
X743973Y1950365D01*
X745174Y1950233D01*
X746378Y1950131D01*
X747584Y1950058D01*
X748792Y1950015D01*
X750000Y1950000D01*
X1350000Y1950000D01*
D17*
X1350000Y1950000D03*
X700000Y2500000D03*
D16*
X900000Y2500000D01*
X901208Y2499985D01*
X902416Y2499942D01*
X903622Y2499869D01*
X904826Y2499767D01*
X906027Y2499635D01*
X907224Y2499475D01*
X908418Y2499286D01*
X909606Y2499069D01*
X910789Y2498822D01*
X911966Y2498547D01*
X913135Y2498244D01*
X914297Y2497912D01*
X915451Y2497553D01*
X916595Y2497166D01*
X917730Y2496751D01*
X918855Y2496309D01*
X919968Y2495840D01*
X921070Y2495344D01*
X922160Y2494821D01*
X923236Y2494273D01*
X924299Y2493698D01*
X925348Y2493098D01*
X926382Y2492473D01*
X927401Y2491824D01*
X928403Y2491149D01*
X929389Y2490451D01*
X930358Y2489729D01*
X931309Y2488984D01*
X932242Y2488216D01*
X933156Y2487426D01*
X934051Y2486613D01*
X934926Y2485780D01*
X935780Y2484926D01*
X936613Y2484051D01*
X937426Y2483156D01*
X938216Y2482242D01*
X938984Y2481309D01*
X939729Y2480358D01*
X940451Y2479389D01*
X941149Y2478403D01*
X941824Y2477401D01*
X942473Y2476382D01*
X943098Y2475348D01*
X943698Y2474299D01*
X944273Y2473236D01*
X944821Y2472160D01*
X945344Y2471070D01*
X945840Y2469968D01*
X946309Y2468855D01*
X946751Y2467730D01*
X947166Y2466595D01*
X947553Y2465451D01*
X947912Y2464297D01*
X948244Y2463135D01*
X948547Y2461966D01*
X948822Y2460789D01*
X949069Y2459606D01*
X949286Y2458418D01*
X949475Y2457224D01*
X949635Y2456027D01*
X949767Y2454826D01*
X949869Y2453622D01*
X949942Y2452416D01*
X949985Y2451208D01*
X950000Y2450000D01*
D17*
X950000Y2450000D03*
X1100000Y2450000D03*
D16*
X1350000Y2450000D01*
X1351208Y2450015D01*
X1352416Y2450058D01*
X1353622Y2450131D01*
X1354826Y2450233D01*
X1356027Y2450365D01*
X1357224Y2450525D01*
X1358418Y2450714D01*
X1359606Y2450931D01*
X1360789Y2451178D01*
X1361966Y2451453D01*
X1363135Y2451756D01*
X1364297Y2452088D01*
X1365451Y2452447D01*
X1366595Y2452834D01*
X1367730Y2453249D01*
X1368855Y2453691D01*
X1369968Y2454160D01*
X1371070Y2454656D01*
X1372160Y2455179D01*
X1373236Y2455727D01*
X1374299Y2456302D01*
X1375348Y2456902D01*
X1376382Y2457527D01*
X1377401Y2458176D01*
X1378403Y2458851D01*
X1379389Y2459549D01*
X1380358Y2460271D01*
X1381309Y2461016D01*
X1382242Y2461784D01*
X1383156Y2462574D01*
X1384051Y2463387D01*
X1384926Y2464220D01*
X1385780Y2465074D01*
X1386613Y2465949D01*
X1387426Y2466844D01*
X1388216Y2467758D01*
X1388984Y2468691D01*
X1389729Y2469642D01*
X1390451Y2470611D01*
X1391149Y2471597D01*
X1391824Y2472599D01*
X1392473Y2473618D01*
X1393098Y2474652D01*
X1393698Y2475701D01*
X1394273Y2476764D01*
X1394821Y2477840D01*
X1395344Y2478930D01*
X1395840Y2480032D01*
X1396309Y2481145D01*
X1396751Y2482270D01*
X1397166Y2483405D01*
X1397553Y2484549D01*
X1397912Y2485703D01*
X1398244Y2486865D01*
X1398547Y2488034D01*
X1398822Y2489211D01*
X1399069Y2490394D01*
X1399286Y2491582D01*
X1399475Y2492776D01*
X1399635Y2493973D01*
X1399767Y2495174D01*
X1399869Y2496378D01*
X1399942Y2497584D01*
X1399985Y2498792D01*
X1400000Y2500000D01*
D17*
X1400000Y2500000D03*
X1050000Y650000D03*
D16*
X1050000Y1100000D01*
X1050015Y1101208D01*
X1050058Y1102416D01*
X1050131Y1103622D01*
X1050233Y1104826D01*
X1050365Y1106027D01*
X1050525Y1107224D01*
X1050714Y1108418D01*
X1050931Y1109606D01*
X1051178Y1110789D01*
X1051453Y1111966D01*
X1051756Y1113135D01*
X1052088Y1114297D01*
X1052447Y1115451D01*
X1052834Y1116595D01*
X1053249Y1117730D01*
X1053691Y1118855D01*
X1054160Y1119968D01*
X1054656Y1121070D01*
X1055179Y1122160D01*
X1055727Y1123236D01*
X1056302Y1124299D01*
X1056902Y1125348D01*
X1057527Y1126382D01*
X1058176Y1127401D01*
X1058851Y1128403D01*
X1059549Y1129389D01*
X1060271Y1130358D01*
X1061016Y1131309D01*
X1061784Y1132242D01*
X1062574Y1133156D01*
X1063387Y1134051D01*
X1064220Y1134926D01*
X1065074Y1135780D01*
X1065949Y1136613D01*
X1066844Y1137426D01*
X1067758Y1138216D01*
X1068691Y1138984D01*
X1069642Y1139729D01*
X1070611Y1140451D01*
X1071597Y1141149D01*
X1072599Y1141824D01*
X1073618Y1142473D01*
X1074652Y1143098D01*
X1075701Y1143698D01*
X1076764Y1144273D01*
X1077840Y1144821D01*
X1078930Y1145344D01*
X1080032Y1145840D01*
X1081145Y1146309D01*
X1082270Y1146751D01*
X1083405Y1147166D01*
X1084549Y1147553D01*
X1085703Y1147912D01*
X1086865Y1148244D01*
X1088034Y1148547D01*
X1089211Y1148822D01*
X1090394Y1149069D01*
X1091582Y1149286D01*
X1092776Y1149475D01*
X1093973Y1149635D01*
X1095174Y1149767D01*
X1096378Y1149869D01*
X1097584Y1149942D01*
X1098792Y1149985D01*
X1100000Y1150000D01*
X2005000Y1150000D01*
X2006208Y1150015D01*
X2007416Y1150058D01*
X2008622Y1150131D01*
X2009826Y1150233D01*
X2011027Y1150365D01*
X2012224Y1150525D01*
X2013418Y1150714D01*
X2014606Y1150931D01*
X2015789Y1151178D01*
X2016966Y1151453D01*
X2018135Y1151756D01*
X2019297Y1152088D01*
X2020451Y1152447D01*
X2021595Y1152834D01*
X2022730Y1153249D01*
X2023855Y1153691D01*
X2024968Y1154160D01*
X2026070Y1154656D01*
X2027160Y1155179D01*
X2028236Y1155727D01*
X2029299Y1156302D01*
X2030348Y1156902D01*
X2031382Y1157527D01*
X2032401Y1158176D01*
X2033403Y1158851D01*
X2034389Y1159549D01*
X2035358Y1160271D01*
X2036309Y1161016D01*
X2037242Y1161784D01*
X2038156Y1162574D01*
X2039051Y1163387D01*
X2039926Y1164220D01*
X2040780Y1165074D01*
X2041613Y1165949D01*
X2042426Y1166844D01*
X2043216Y1167758D01*
X2043984Y1168691D01*
X2044729Y1169642D01*
X2045451Y1170611D01*
X2046149Y1171597D01*
X2046824Y1172599D01*
X2047473Y1173618D01*
X2048098Y1174652D01*
X2048698Y1175701D01*
X2049273Y1176764D01*
X2049821Y1177840D01*
X2050344Y1178930D01*
X2050840Y1180032D01*
X2051309Y1181145D01*
X2051751Y1182270D01*
X2052166Y1183405D01*
X2052553Y1184549D01*
X2052912Y1185703D01*
X2053244Y1186865D01*
X2053547Y1188034D01*
X2053822Y1189211D01*
X2054069Y1190394D01*
X2054286Y1191582D01*
X2054475Y1192776D01*
X2054635Y1193973D01*
X2054767Y1195174D01*
X2054869Y1196378D01*
X2054942Y1197584D01*
X2054985Y1198792D01*
X2055000Y1200000D01*
D17*
X1100000Y500000D03*
D16*
X1500000Y500000D01*
D17*
X1500000Y500000D03*
X1500000Y950000D03*
D16*
X1895000Y950000D01*
X2045000Y1100000D01*
D17*
X1197268Y597708D03*
D16*
X1897708Y597708D01*
X1897803Y597710D01*
X1897897Y597716D01*
X1897992Y597726D01*
X1898085Y597739D01*
X1898178Y597757D01*
X1898271Y597778D01*
X1898362Y597803D01*
X1898452Y597832D01*
X1898541Y597865D01*
X1898629Y597901D01*
X1898715Y597941D01*
X1898799Y597984D01*
X1898881Y598031D01*
X1898962Y598081D01*
X1899040Y598135D01*
X1899116Y598191D01*
X1899189Y598251D01*
X1899260Y598314D01*
X1899329Y598379D01*
X1899394Y598448D01*
X1899457Y598519D01*
X1899517Y598592D01*
X1899573Y598668D01*
X1899627Y598746D01*
X1899677Y598827D01*
X1899724Y598909D01*
X1899767Y598993D01*
X1899807Y599079D01*
X1899843Y599167D01*
X1899876Y599256D01*
X1899905Y599346D01*
X1899930Y599437D01*
X1899951Y599530D01*
X1899969Y599623D01*
X1899982Y599716D01*
X1899992Y599811D01*
X1899998Y599905D01*
X1900000Y600000D01*
D17*
X1900000Y600000D03*
X1900000Y850000D03*
D16*
X2045000Y850000D01*
D17*
X1150000Y550000D03*
D16*
X1950000Y550000D01*
D17*
X1950000Y550000D03*
M02*
